<?xml version="1.0" encoding="UTF-8" standalone="no"?>
<svg
   width="511"
   height="118"
   id="screenshot-b7ce9550-67f9-8036-8004-a7920651003a"
   fill="none"
   version="1.1"
   sodipodi:docname="full-logo.svg"
   inkscape:version="1.3.2 (091e20e, 2023-11-25, custom)"
   xmlns:inkscape="http://www.inkscape.org/namespaces/inkscape"
   xmlns:sodipodi="http://sodipodi.sourceforge.net/DTD/sodipodi-0.dtd"
   xmlns="http://www.w3.org/2000/svg"
   xmlns:svg="http://www.w3.org/2000/svg">
  <defs
     id="defs4" />
  <sodipodi:namedview
     id="namedview3"
     pagecolor="#ffffff"
     bordercolor="#000000"
     borderopacity="0.25"
     inkscape:showpageshadow="2"
     inkscape:pageopacity="0.0"
     inkscape:pagecheckerboard="0"
     inkscape:deskcolor="#d1d1d1"
     inkscape:zoom="2.7358121"
     inkscape:cx="256.23104"
     inkscape:cy="110.20494"
     inkscape:window-width="1920"
     inkscape:window-height="1111"
     inkscape:window-x="-9"
     inkscape:window-y="-9"
     inkscape:window-maximized="1"
     inkscape:current-layer="shape-b7ce9550-67f9-8036-8004-a7920651003a" />
  <style
     id="style1">@font-face{font-family:'Cormorant Garamond';font-style:normal;font-weight:600;font-display:block;src:url(https://design.penpot.app/internal/gfonts/font/cormorantgaramond/v16/co3YmX5slCNuHLi8bLeY9MK7whWMhyjQdl9fsw-I1hc.woff2) format('woff2');unicode-range:U+0460-052F, U+1C80-1C88, U+20B4, U+2DE0-2DFF, U+A640-A69F, U+FE2E-FE2F}@font-face{font-family:'Cormorant Garamond';font-style:normal;font-weight:600;font-display:block;src:url(https://design.penpot.app/internal/gfonts/font/cormorantgaramond/v16/co3YmX5slCNuHLi8bLeY9MK7whWMhyjQdl9fug-I1hc.woff2) format('woff2');unicode-range:U+0301, U+0400-045F, U+0490-0491, U+04B0-04B1, U+2116}@font-face{font-family:'Cormorant Garamond';font-style:normal;font-weight:600;font-display:block;src:url(https://design.penpot.app/internal/gfonts/font/cormorantgaramond/v16/co3YmX5slCNuHLi8bLeY9MK7whWMhyjQdl9fsQ-I1hc.woff2) format('woff2');unicode-range:U+0102-0103, U+0110-0111, U+0128-0129, U+0168-0169, U+01A0-01A1, U+01AF-01B0, U+0300-0301, U+0303-0304, U+0308-0309, U+0323, U+0329, U+1EA0-1EF9, U+20AB}@font-face{font-family:'Cormorant Garamond';font-style:normal;font-weight:600;font-display:block;src:url(https://design.penpot.app/internal/gfonts/font/cormorantgaramond/v16/co3YmX5slCNuHLi8bLeY9MK7whWMhyjQdl9fsA-I1hc.woff2) format('woff2');unicode-range:U+0100-02AF, U+0304, U+0308, U+0329, U+1E00-1E9F, U+1EF2-1EFF, U+2020, U+20A0-20AB, U+20AD-20C0, U+2113, U+2C60-2C7F, U+A720-A7FF}@font-face{font-family:'Cormorant Garamond';font-style:normal;font-weight:600;font-display:block;src:url(https://design.penpot.app/internal/gfonts/font/cormorantgaramond/v16/co3YmX5slCNuHLi8bLeY9MK7whWMhyjQdl9fvg-I.woff2) format('woff2');unicode-range:U+0000-00FF, U+0131, U+0152-0153, U+02BB-02BC, U+02C6, U+02DA, U+02DC, U+0304, U+0308, U+0329, U+2000-206F, U+2074, U+20AC, U+2122, U+2191, U+2193, U+2212, U+2215, U+FEFF, U+FFFD}@font-face{font-family:'Work Sans';font-style:normal;font-weight:700;font-display:block;src:url(https://design.penpot.app/internal/gfonts/font/worksans/v19/QGY_z_wNahGAdqQ43RhVcIgYT2Xz5u32K67QBiAJpp_c.woff2) format('woff2');unicode-range:U+0102-0103, U+0110-0111, U+0128-0129, U+0168-0169, U+01A0-01A1, U+01AF-01B0, U+0300-0301, U+0303-0304, U+0308-0309, U+0323, U+0329, U+1EA0-1EF9, U+20AB}@font-face{font-family:'Work Sans';font-style:normal;font-weight:700;font-display:block;src:url(https://design.penpot.app/internal/gfonts/font/worksans/v19/QGY_z_wNahGAdqQ43RhVcIgYT2Xz5u32K67QBiEJpp_c.woff2) format('woff2');unicode-range:U+0100-02AF, U+0304, U+0308, U+0329, U+1E00-1E9F, U+1EF2-1EFF, U+2020, U+20A0-20AB, U+20AD-20C0, U+2113, U+2C60-2C7F, U+A720-A7FF}@font-face{font-family:'Work Sans';font-style:normal;font-weight:700;font-display:block;src:url(https://design.penpot.app/internal/gfonts/font/worksans/v19/QGY_z_wNahGAdqQ43RhVcIgYT2Xz5u32K67QBi8Jpg.woff2) format('woff2');unicode-range:U+0000-00FF, U+0131, U+0152-0153, U+02BB-02BC, U+02C6, U+02DA, U+02DC, U+0304, U+0308, U+0329, U+2000-206F, U+2074, U+20AC, U+2122, U+2191, U+2193, U+2212, U+2215, U+FEFF, U+FFFD}</style>
  <g
     id="shape-b7ce9550-67f9-8036-8004-a7920651003a"
     data-testid="Group">
    <g
       class="text-container"
       id="shape-b7ce9550-67f9-8036-8004-a7821f456c79"
       data-testid="MIND MUSCLES">
      <defs
         id="defs1">
        <pattern
           patternUnits="userSpaceOnUse"
           x="93"
           y="0"
           width="311.85"
           height="47.2"
           id="fill-0-render-2-0">
          <rect
             width="311.85"
             height="47.2"
             style="fill: rgb(2, 195, 126); fill-opacity: 1;"
             id="rect1" />
        </pattern>
      </defs>
      <path
         d="m 126.47678,12.914351 v 26.399998 h -6.07941 V 27.19435 l 0.19998,-8.119999 h -0.08 l -6.51938,20.239998 h -5.55946 l -6.51938,-20.239998 h -0.08 l 0.19998,8.119999 V 39.314349 H 95.91972 V 12.914351 h 9.79906 l 4.1596,13.439999 1.47986,5.6 h 0.08 l 1.51985,-5.56 4.11961,-13.479999 z m 12.71878,0 v 26.399998 h -6.87934 V 12.914351 Z m 29.63718,0 v 26.399998 h -7.63926 l -8.19921,-14.279999 -1.99981,-3.919999 h -0.04 l 0.15999,4.879999 v 13.319999 h -6.07942 V 12.914351 h 7.63927 l 8.19921,14.279999 1.99981,3.92 h 0.04 l -0.15998,-4.88 V 12.914351 Z m 17.03834,0 q 6.1994,0 9.47909,3.44 3.31968,3.44 3.31968,9.759999 0,6.32 -3.31968,9.759999 -3.27969,3.44 -9.47909,3.44 H 174.67215 V 12.914351 Z m -0.67994,21.199999 q 3.35968,0 4.87953,-2 1.55985,-2.04 1.55985,-6 0,-3.959999 -1.55985,-5.959999 -1.51985,-2.04 -4.87953,-2.04 h -3.63965 V 34.11435 Z m 60.19421,-21.199999 v 26.399998 h -6.07942 V 27.19435 l 0.19998,-8.119999 h -0.08 l -6.51938,20.239998 h -5.55946 l -6.51937,-20.239998 h -0.08 l 0.19998,8.119999 v 12.119999 h -6.11941 V 12.914351 h 9.79906 l 4.1596,13.439999 1.47986,5.6 h 0.08 l 1.51985,-5.56 4.11961,-13.479999 z m 28.91722,0 V 28.55435 q 0,5.6 -2.99971,8.399999 -2.95972,2.76 -8.79915,2.76 -5.79945,0 -8.79916,-2.76 -2.99971,-2.799999 -2.99971,-8.399999 V 12.914351 h 6.91933 V 28.67435 q 0,2.84 1.19989,4.24 1.23988,1.4 3.67965,1.4 2.47976,0 3.67964,-1.4 1.23988,-1.4 1.23988,-4.24 V 12.914351 Z m 15.63846,-0.4 q 3.67965,0 6.47938,1.16 2.83972,1.12 4.91952,3.32 l -3.31968,4.44 q -1.71983,-1.8 -3.71964,-2.68 -1.95981,-0.92 -4.47957,-0.92 -1.47986,0 -2.39977,0.32 -0.91991,0.32 -1.31987,0.88 -0.39996,0.56 -0.39996,1.28 0,0.84 0.75992,1.44 0.79993,0.56 2.55976,0.96 l 4.43957,0.999999 q 3.95962,0.92 5.79944,2.68 1.83983,1.76 1.83983,4.68 0,2.8 -1.43986,4.759999 -1.43987,1.92 -3.95962,2.92 -2.51976,0.96 -5.75945,0.96 -2.63975,0 -5.03952,-0.56 -2.39977,-0.6 -4.31958,-1.68 -1.91982,-1.08 -3.23969,-2.479999 l 3.31968,-4.6 q 0.9999,1.16 2.43977,2.08 1.47985,0.88 3.19969,1.4 1.75983,0.52 3.55966,0.52 1.39986,0 2.31977,-0.28 0.95991,-0.28 1.39987,-0.84 0.43996,-0.56 0.43996,-1.32 0,-0.84 -0.59994,-1.4 -0.59995,-0.6 -2.27979,-1 l -4.87953,-1.08 q -2.23978,-0.52 -3.99961,-1.36 -1.71984,-0.88 -2.71974,-2.32 -0.99991,-1.48 -0.99991,-3.679999 0,-2.48 1.35987,-4.4 1.35987,-1.96 3.91963,-3.08 2.55975,-1.12 6.11941,-1.12 z m 38.87629,19.239999 q -0.75993,2.76 -2.43977,4.559999 -1.67983,1.76 -3.99961,2.6 -2.31978,0.8 -5.11951,0.8 -3.99962,0 -6.91934,-1.6 -2.91972,-1.64 -4.47957,-4.679999 -1.55985,-3.04 -1.55985,-7.32 0,-4.279999 1.55985,-7.319999 1.55985,-3.04 4.47957,-4.64 2.91972,-1.64 6.87934,-1.64 2.75974,0 5.07952,0.8 2.31977,0.76 3.91962,2.36 1.59985,1.6 2.27978,4.12 l -6.03942,2.44 q -0.55995,-2.48 -1.83982,-3.4 -1.23988,-0.92 -3.1597,-0.92 -1.87982,0 -3.27968,0.92 -1.35987,0.92 -2.1198,2.76 -0.71993,1.799999 -0.71993,4.519999 0,2.68 0.67993,4.52 0.67994,1.84 2.03981,2.76 1.39986,0.92 3.43967,0.92 1.91981,0 3.23969,-1.04 1.35987,-1.08 1.83982,-3.28 z m 10.71895,2.24 H 352.775 v 5.319999 H 332.65693 V 12.914351 h 6.87934 z m 17.19833,5.319999 V 12.914351 h 20.55803 v 5.32 h -13.67869 v 5.359999 h 10.87895 v 5 h -10.87895 v 5.4 h 14.19864 v 5.319999 z m 35.55659,-26.799998 q 3.67964,0 6.47938,1.16 2.83972,1.12 4.91952,3.32 l -3.31968,4.44 q -1.71983,-1.8 -3.71964,-2.68 -1.95981,-0.92 -4.47957,-0.92 -1.47986,0 -2.39977,0.32 -0.91991,0.32 -1.31987,0.88 -0.39996,0.56 -0.39996,1.28 0,0.84 0.75992,1.44 0.79993,0.56 2.55976,0.96 l 4.43957,0.999999 q 3.95962,0.92 5.79944,2.68 1.83983,1.76 1.83983,4.68 0,2.8 -1.43987,4.759999 -1.43986,1.92 -3.95961,2.92 -2.51976,0.96 -5.75945,0.96 -2.63975,0 -5.03952,-0.56 -2.39977,-0.6 -4.31958,-1.68 -1.91982,-1.08 -3.23969,-2.479999 l 3.31968,-4.6 q 0.9999,1.16 2.43977,2.08 1.47985,0.88 3.19969,1.4 1.75983,0.52 3.55966,0.52 1.39986,0 2.31977,-0.28 0.95991,-0.28 1.39987,-0.84 0.43996,-0.56 0.43996,-1.32 0,-0.84 -0.59995,-1.4 -0.59994,-0.6 -2.27978,-1 l -4.87953,-1.08 q -2.23978,-0.52 -3.99961,-1.36 -1.71984,-0.88 -2.71974,-2.32 -0.99991,-1.48 -0.99991,-3.679999 0,-2.48 1.35987,-4.4 1.35987,-1.96 3.91963,-3.08 2.55975,-1.12 6.11941,-1.12 z"
         id="fills-b7ce9550-67f9-8036-8004-a7821f456c79"
         style="font-weight:700;font-size:40px;font-family:'Work Sans';dominant-baseline:ideographic;white-space:pre;fill:#02c37e"
         class="fills"
         aria-label="MIND MUSCLES" />
    </g>
    <g
       class="text-container"
       id="shape-b7ce9550-67f9-8036-8004-a7828e3c3902"
       data-testid="Academy.">
      <defs
         id="defs2">
        <pattern
           patternUnits="userSpaceOnUse"
           x="93"
           y="45"
           width="210.75"
           height="67.2"
           id="fill-0-render-3-0">
          <rect
             width="210.75"
             height="67.2"
             style="fill: rgb(0, 0, 0); fill-opacity: 1;"
             id="rect2" />
        </pattern>
      </defs>
      <path
         d="m 103.5595,83.715932 h 15.39928 l 0.38498,1.375 h -16.49922 z m 28.54366,14.189999 q 0.21999,0 0.21999,0.33 0,0.33 -0.21999,0.33 -1.04496,0 -3.35485,-0.11 -2.30989,-0.11 -3.35484,-0.11 -1.37493,0 -3.24484,0.11 -1.86992,0.11 -2.91487,0.11 -0.21999,0 -0.21999,-0.33 0,-0.33 0.21999,-0.33 1.64992,0 2.36489,-0.33 0.71497,-0.385 0.71497,-1.21 0,-0.824999 -0.93496,-2.804999 l -11.49446,-23.374998 2.2549,-3.685 -10.88949,24.529998 q -0.71497,1.65 -0.71497,2.97 0,1.925 1.37494,2.914999 1.37493,0.99 3.84982,0.99 0.27499,0 0.27499,0.33 0,0.33 -0.27499,0.33 -0.98996,0 -2.85987,-0.11 -2.0899,-0.11 -3.629826,-0.11 -1.48493,0 -3.464836,0.11 -1.759917,0.11 -2.914863,0.11 -0.274987,0 -0.274987,-0.33 0,-0.33 0.274987,-0.33 1.539928,0 2.584878,-0.605 1.044951,-0.605 2.034904,-2.144999 0.989954,-1.595 2.364889,-4.675 L 111.69912,63.860934 q 0.10999,-0.165 0.49497,-0.165 0.38499,0 0.43998,0.165 l 13.47437,27.169998 q 1.86991,3.96 3.13485,5.444999 1.31994,1.43 2.85987,1.43 z m 12.81442,1.32 q -3.57484,0 -6.10472,-1.54 -2.47488,-1.594999 -3.68482,-4.069999 -1.20995,-2.53 -1.20995,-5.28 0,-3.465 1.86992,-6.049999 1.86991,-2.64 4.78477,-4.015 2.96986,-1.43 5.99472,-1.43 2.58488,0 4.61978,1.045 2.0899,1.045 2.0899,2.805 0,0.935 -0.71497,1.595 -0.65996,0.66 -1.9249,0.66 -2.1449,0 -3.02486,-2.42 -0.49498,-1.375 -1.15495,-1.925 -0.60497,-0.605 -1.92491,-0.605 -2.58487,0 -4.1248,2.365 -1.48493,2.31 -1.48493,6.214999 0,4.565 2.0899,7.425 2.1449,2.804999 6.65469,2.804999 1.48493,0 2.69487,-0.385 1.26494,-0.384999 2.69487,-1.209999 h 0.055 q 0.16499,0 0.27499,0.165 0.16499,0.165 0.055,0.275 -2.0349,1.814999 -4.01481,2.694999 -1.9799,0.88 -4.50978,0.88 z m 27.55368,-0.33 q -0.21999,0.11 -0.49497,0.11 -0.98996,0 -1.81492,-1.32 -0.82496,-1.375 -0.82496,-3.629999 v -9.68 q 0,-3.409999 -0.71496,-4.949999 -0.65997,-1.595 -2.1449,-1.595 -1.81492,0 -2.63988,1.375 -0.76996,1.32 -0.93495,2.97 -0.32999,2.804999 -2.80487,2.804999 -1.20995,0 -1.81492,-0.55 -0.54997,-0.55 -0.54997,-1.374999 0,-1.54 1.81491,-2.97 1.86992,-1.485 4.45479,-2.365 2.63988,-0.935 4.61979,-0.935 2.36488,0 3.73982,1.485 1.42993,1.485 1.42993,4.455 v 9.899999 q 0,3.465 2.1449,3.465 0.82496,0 1.97991,-0.495 h 0.10999 q 0.21999,0 0.27499,0.275 0.055,0.22 -0.16499,0.33 z m -10.33951,0.055 q -2.25489,0 -3.40984,-1.045 -1.15494,-1.045 -1.15494,-2.859999 0,-1.485 0.76996,-2.42 0.82496,-0.935 2.0349,-1.485 1.20995,-0.605 3.62983,-1.485 l 5.88473,-2.2 0.16499,0.825 -4.01481,1.705 q -1.48493,0.605 -2.36489,1.32 -0.87996,0.715 -0.87996,2.145 0,1.32 0.82496,2.09 0.87996,0.769999 2.03491,0.769999 1.04495,0 2.14489,-0.659999 l 2.96986,-1.98 0.055,0.825 -3.90481,2.749999 q -1.31994,0.935 -2.41989,1.32 -1.04495,0.385 -2.36489,0.385 z m 26.45376,0.33 q -2.36489,0 -4.3448,-1.265 -1.9799,-1.32 -3.13485,-3.739999 -1.15494,-2.42 -1.15494,-5.665 0,-4.07 1.92491,-6.764999 1.9249,-2.695 4.83977,-3.96 2.91486,-1.265 5.82972,-1.265 3.57483,0 6.76468,1.98 l -1.04495,4.18 q -1.31994,-2.475 -2.91486,-3.63 -1.53993,-1.21 -3.84982,-1.21 -3.13485,0 -4.89477,2.2 -1.70492,2.2 -1.70492,6.764999 0,4.62 1.81492,7.315 1.81491,2.639999 4.61978,2.639999 2.0899,0 3.73982,-1.099999 1.70492,-1.1 3.62983,-3.19 l 0.49498,0.44 q -2.52988,2.805 -5.00477,4.564999 -2.41988,1.705 -5.60973,1.705 z m 13.03438,-6.984999 q 0,1.925 0.38499,2.75 0.38498,0.77 1.31993,0.77 1.09995,0 2.47489,-0.66 h 0.055 q 0.165,0 0.27499,0.275 0.16499,0.275 0,0.33 l -7.03967,3.409999 -0.32998,0.055 q -0.65997,0 -1.15495,-1.375 -0.43998,-1.375 -0.43998,-3.794999 V 66.005934 q 0,-1.925 -0.38498,-2.75 -0.32998,-0.88 -1.26494,-0.88 -0.60497,0 -2.19989,0.66 h -0.11 q -0.21999,0 -0.32998,-0.275 -0.11,-0.275 0.055,-0.33 l 7.69964,-3.685 0.21999,-0.055 q 0.21999,0 0.49498,0.22 0.27498,0.22 0.27498,0.385 z m 17.26918,6.929999 q -3.35485,0 -5.82973,-1.485 -2.41989,-1.484999 -3.73982,-3.904999 -1.26494,-2.42 -1.26494,-5.225 0,-3.245 1.59492,-5.939999 1.59493,-2.695 4.3448,-4.235 2.80486,-1.595 6.2147,-1.595 3.29985,0 5.05976,1.595 1.81492,1.595 1.81492,4.73 0,0.824999 -0.16499,1.209999 -0.11,0.385 -0.43998,0.385 h -4.50979 q 0.27499,-6.819999 -3.73982,-6.819999 -2.47489,0 -3.90482,2.255 -1.37493,2.255 -1.37493,6.104999 0,4.84 2.25489,7.7 2.25489,2.804999 6.3797,2.804999 1.53993,0 2.58488,-0.385 1.04495,-0.384999 2.74987,-1.264999 l 0.10999,-0.055 q 0.11,0 0.21999,0.22 0.16499,0.22 0.055,0.33 -1.97991,1.869999 -4.01481,2.749999 -2.03491,0.825 -4.39979,0.825 z m -7.58965,-15.344999 12.20943,-0.22 v 1.1 l -12.15443,0.055 z m 48.45269,14.684999 q -0.16499,0 -0.16499,-0.33 0,-0.33 0.16499,-0.33 1.81491,0 2.47488,-0.77 0.65997,-0.825 0.65997,-3.024999 v -8.195 q 0,-3.079999 -1.09995,-4.564999 -1.04495,-1.485 -3.24484,-1.485 -1.75992,0 -3.51984,0.99 -1.70492,0.99 -2.85986,2.694999 l -0.27499,-0.659999 q 4.2348,-6.16 9.34956,-6.16 2.91486,0 4.45479,1.705 1.59492,1.65 1.59492,5.059999 v 10.615 q 0,2.254999 0.60498,3.024999 0.65997,0.77 2.52988,0.77 0.21999,0 0.21999,0.33 0,0.33 -0.21999,0.33 -1.37494,0 -2.1999,-0.055 l -3.13485,-0.055 -3.13485,0.055 q -0.82496,0.055 -2.1999,0.055 z m -14.35432,0 q -0.165,0 -0.165,-0.33 0,-0.33 0.165,-0.33 1.86991,0 2.47488,-0.77 0.65997,-0.77 0.65997,-3.024999 v -8.195 q 0,-3.079999 -1.09995,-4.564999 -1.04495,-1.485 -3.24485,-1.485 -1.75991,0 -3.51983,0.99 -1.70492,0.99 -2.85986,2.694999 l -0.27499,-0.659999 q 4.2348,-6.16 9.34956,-6.16 2.91486,0 4.45479,1.65 1.59492,1.595 1.59492,4.675 v 11.054999 q 0,2.254999 0.65997,3.024999 0.65997,0.77 2.52988,0.77 0.16499,0 0.16499,0.33 0,0.33 -0.16499,0.33 -1.42993,0 -2.25489,-0.055 l -3.13485,-0.055 -3.13486,0.055 q -0.82496,0.055 -2.19989,0.055 z m -14.13434,0 q -0.16499,0 -0.16499,-0.33 0,-0.33 0.16499,-0.33 1.86992,0 2.47489,-0.77 0.60497,-0.77 0.60497,-3.024999 v -10.505 q 0,-1.759999 -0.43998,-2.584999 -0.38498,-0.825 -1.31994,-0.825 -0.82496,0 -2.74987,0.825 h -0.055 q -0.21999,0 -0.32998,-0.275 -0.11,-0.275 0.055,-0.33 l 7.20466,-3.52 q 0.32998,-0.11 0.38498,-0.11 0.60497,0 1.15494,1.375 0.54998,1.375 0.54998,3.575 v 12.374999 q 0,2.254999 0.60497,3.024999 0.65997,0.77 2.52988,0.77 0.16499,0 0.16499,0.33 0,0.33 -0.16499,0.33 -1.37493,0 -2.1999,-0.055 l -3.13485,-0.055 -3.18985,0.055 q -0.76996,0.055 -2.1449,0.055 z m 64.29194,-21.229998 q 0.10999,0 0.10999,0.33 0,0.33 -0.10999,0.33 -1.64993,0 -2.85987,1.32 -1.15494,1.32 -2.1449,4.015 l -6.3247,16.774997 q -1.97991,5.28 -3.79482,8.305 -1.81492,3.025 -3.68483,4.29 -1.86991,1.32 -4.1248,1.32 -1.53993,0 -2.36489,-0.66 -0.87996,-0.605 -0.87996,-1.87 0,-1.045 0.71497,-1.65 0.65997,-0.605 1.64992,-0.605 0.65997,0 1.04495,0.165 0.43998,0.165 1.04495,0.55 0.93496,0.715 1.92491,0.715 1.37494,0 2.47488,-1.21 1.15495,-1.155 2.41989,-3.85 1.31994,-2.695 3.18985,-7.754999 l -0.16499,2.529999 -9.07458,-18.479997 q -1.26494,-2.42 -1.9249,-3.135 -0.65997,-0.77 -1.70492,-0.77 -0.11,0 -0.11,-0.33 0,-0.33 0.11,-0.33 1.42993,0 2.19989,0.055 l 2.1449,0.055 3.73982,-0.055 q 0.82497,-0.055 2.2549,-0.055 0.16499,0 0.16499,0.33 0,0.33 -0.16499,0.33 -1.48493,0 -2.1999,0.275 -0.71496,0.22 -0.71496,0.825 0,0.44 0.32998,1.045 l 7.14966,14.684999 -1.70492,2.914999 5.00477,-14.409998 q 0.43998,-1.43 0.43998,-2.365 0,-2.97 -3.68483,-2.97 -0.10999,0 -0.10999,-0.33 0,-0.33 0.10999,-0.33 1.48493,0 2.25489,0.055 l 3.29985,0.055 2.1449,-0.055 q 0.60497,-0.055 1.92491,-0.055 z m 2.63985,21.834998 q -1.37494,0 -2.1999,-0.825 -0.82496,-0.825 -0.82496,-2.199999 0,-1.32 0.82496,-2.09 0.82496,-0.77 2.1999,-0.77 1.42993,0 2.19989,0.77 0.76997,0.77 0.76997,2.09 0,1.429999 -0.76997,2.254999 -0.76996,0.77 -2.19989,0.77 z"
         id="fills-b7ce9550-67f9-8036-8004-a7828e3c3902"
         style="font-weight:600;font-size:55px;font-family:'Cormorant Garamond';dominant-baseline:ideographic;white-space:pre;fill:#000000"
         class="fills"
         transform="translate(0,-10)"
         aria-label="Academy." />
    </g>
    <g
       id="shape-b7ce9550-67f9-8036-8004-a7915b1e4642"
       data-testid="2024-07-14-162537"
       transform="matrix(0.86243789,0,0,0.86243789,13.52432,8.111142)">
      <defs
         id="defs3">
        <pattern
           patternUnits="userSpaceOnUse"
           x="0"
           y="0"
           width="93"
           height="91"
           id="fill-0-render-4">
          <image
             id="fill-image-render-4-0"
             href="https://design.penpot.app/assets/by-file-media-id/00226e16-5f9a-80fa-8004-a7915a4644b5"
             preserveAspectRatio="xMidYMid slice"
             width="93"
             height="91"
             opacity="1" />
        </pattern>
      </defs>
      <path
         id="fills-b7ce9550-67f9-8036-8004-a7915b1e4642"
         class="fills"
         style="fill:url(#fill-0-render-4)"
         d="M 0,0 H 93 V 91 H 0 Z" />
    </g>
  </g>
</svg>
