<svg width="193" height="193" viewBox="0 0 193 193" fill="none" xmlns="http://www.w3.org/2000/svg">
<path fill-rule="evenodd" clip-rule="evenodd" d="M0 0H192.756V192.756H0V0Z" fill="white"/>
<path fill-rule="evenodd" clip-rule="evenodd" d="M8.50391 80.0259C8.50391 72.8249 14.3369 66.9919 21.5389 66.9919C28.7409 66.9919 34.5479 72.8249 34.5479 80.0259C34.5479 87.2269 28.7399 93.0609 21.5389 93.0609C14.3379 93.0609 8.50391 87.2279 8.50391 80.0259ZM39.7609 80.0259C39.7609 72.8249 45.5939 66.9919 52.7959 66.9919C59.9979 66.9919 65.8309 72.8249 65.8309 80.0259C65.8309 87.2269 59.9979 93.0609 52.7959 93.0609C45.5939 93.0609 39.7609 87.2279 39.7609 80.0259ZM8.50391 112.729C8.50391 105.528 14.3369 99.7199 21.5389 99.7199C23.248 99.7174 24.9407 100.052 26.5202 100.705C28.0997 101.358 29.5347 102.316 30.7432 103.525C31.9517 104.733 32.9099 106.168 33.5628 107.748C34.2156 109.327 34.5504 111.02 34.5479 112.729C34.5479 119.93 28.7399 125.763 21.5389 125.763C14.3379 125.763 8.50391 119.931 8.50391 112.729ZM39.7609 112.729C39.7609 105.528 45.5939 99.7199 52.7959 99.7199C59.9979 99.7199 65.8309 105.528 65.8309 112.729C65.8309 119.93 59.9979 125.763 52.7959 125.763C45.5939 125.763 39.7609 119.931 39.7609 112.729Z" fill="#00AEEF"/>
<path fill-rule="evenodd" clip-rule="evenodd" d="M76.052 109.142L77.472 101.295C77.472 101.295 92.622 106.922 96.262 103.824C96.262 103.824 98.662 100.856 92.339 100.597C92.339 100.597 75.923 97.216 78.298 89.937C78.298 89.937 78.736 81.058 100.625 83.458C100.625 83.458 106.071 84.026 108.601 85.704L107.621 92.028C107.621 92.028 100.342 87.511 92.47 89.06C92.47 89.06 89.657 89.215 90.379 91.873C90.379 91.873 92.082 93.55 96.135 93.706C96.135 93.706 110.873 95.125 110.022 103.411C110.022 103.411 111.002 114.046 89.528 111.387L76.052 109.142ZM110.871 110.819L125.041 84.027H140.734L154.362 110.406H140.476C140.476 110.406 136.398 102.275 132.19 101.579L136.527 100.727L133.043 91.331L124.887 110.973L110.871 110.819ZM150.568 93.293V83.614H184.252V92.854H173.592V110.974H161.1V93.293H150.568Z" fill="black"/>
</svg>
